<svg width="23" height="29" viewBox="0 0 23 29" fill="none" xmlns="http://www.w3.org/2000/svg">
<path d="M15.4319 3.9402C15.7381 3.56504 16.1032 3.2665 16.506 3.06184C16.9088 2.85718 17.3414 2.75046 17.7787 2.74785C18.2161 2.74524 18.6495 2.84679 19.054 3.04662C19.4585 3.24646 19.826 3.54062 20.1353 3.91211C20.4446 4.2836 20.6895 4.72503 20.8559 5.21091C21.0223 5.69679 21.1069 6.21747 21.1048 6.74285C21.1026 7.26823 21.0138 7.78789 20.8435 8.2718C20.6732 8.7557 20.4247 9.19426 20.1124 9.56211L19.042 10.8492L19.49 11.4236C19.8516 11.8869 20.0491 12.5011 20.0406 13.1362C20.0321 13.7712 19.8183 14.3774 19.4445 14.8266L17.7932 16.8101C17.6809 16.945 17.5285 17.0209 17.3697 17.0209C17.2108 17.0209 17.0584 16.945 16.9461 16.8101C16.8337 16.6751 16.7706 16.4921 16.7706 16.3013C16.7706 16.1104 16.8337 15.9274 16.9461 15.7924L18.5973 13.8089C18.7514 13.624 18.8395 13.3744 18.8431 13.1128C18.8467 12.8512 18.7654 12.5982 18.6165 12.4073L18.1943 11.8668L8.53191 23.4756C8.16666 23.9143 7.70985 24.2268 7.20941 24.3804L2.66404 25.7762C2.56328 25.8072 2.45754 25.8062 2.35722 25.7732C2.25691 25.7402 2.16548 25.6763 2.09193 25.588C2.01839 25.4996 1.96526 25.3898 1.93778 25.2693C1.91031 25.1488 1.90942 25.0218 1.93522 24.9008L3.09816 19.4412C3.2262 18.8404 3.48636 18.2921 3.85141 17.8537L15.4319 3.9402Z" fill="white"/>
</svg>
