<svg width="41" height="39" viewBox="0 0 41 39" fill="none" xmlns="http://www.w3.org/2000/svg">
<path d="M33.4833 34.125L22.7208 23.8875C21.8667 24.5375 20.8844 25.0521 19.774 25.4312C18.6635 25.8104 17.4819 26 16.2292 26C13.1257 26 10.4994 24.9773 8.35033 22.932C6.20125 20.8867 5.12614 18.3885 5.125 15.4375C5.125 12.4854 6.20011 9.98725 8.35033 7.943C10.5006 5.89875 13.1268 4.87608 16.2292 4.875C19.3326 4.875 21.9589 5.89767 24.108 7.943C26.2571 9.98833 27.3322 12.4865 27.3333 15.4375C27.3333 16.6292 27.134 17.7531 26.7354 18.8094C26.3368 19.8656 25.7958 20.8 25.1125 21.6125L35.875 31.85L33.4833 34.125ZM16.2292 22.75C18.3646 22.75 20.18 22.0388 21.6753 20.6164C23.1707 19.194 23.9178 17.4677 23.9167 15.4375C23.9167 13.4062 23.169 11.6794 21.6736 10.257C20.1783 8.83458 18.3634 8.12392 16.2292 8.125C14.0938 8.125 12.2784 8.83621 10.783 10.2586C9.28764 11.681 8.54053 13.4073 8.54167 15.4375C8.54167 17.4688 9.28935 19.1956 10.7847 20.618C12.2801 22.0404 14.0949 22.7511 16.2292 22.75Z" fill="black"/>
</svg>
