<svg width="96" height="94" viewBox="0 0 96 94" fill="none" xmlns="http://www.w3.org/2000/svg">
<path fill-rule="evenodd" clip-rule="evenodd" d="M48 94C74.5097 94 96 72.9574 96 47C96 21.0426 74.5097 0 48 0C21.4903 0 0 21.0426 0 47C0 72.9574 21.4903 94 48 94Z" fill="#BABABA"/>
<path fill-rule="evenodd" clip-rule="evenodd" d="M59.8119 34.9325C59.8119 41.2465 54.513 46.3648 47.9763 46.3648C41.4397 46.3648 36.1407 41.2465 36.1407 34.9325C36.1407 28.6185 41.4397 23.5 47.9763 23.5C54.513 23.5 59.8119 28.6185 59.8119 34.9325ZM26.5244 72.8023C26.5244 61.3583 36.1287 52.0812 47.9763 52.0812C59.8239 52.0812 69.4285 61.3583 69.4285 72.8023H26.5244Z" fill="#151515"/>
</svg>
