<svg width="31" height="31" viewBox="0 0 31 31" fill="none" xmlns="http://www.w3.org/2000/svg">
<path d="M28.4833 30.125L17.7208 19.8875C16.8667 20.5375 15.8844 21.0521 14.774 21.4312C13.6635 21.8104 12.4819 22 11.2292 22C8.12569 22 5.49942 20.9773 3.35033 18.932C1.20125 16.8867 0.126139 14.3885 0.125 11.4375C0.125 8.48542 1.20011 5.98725 3.35033 3.943C5.50056 1.89875 8.12683 0.876083 11.2292 0.875C14.3326 0.875 16.9589 1.89767 19.108 3.943C21.2571 5.98833 22.3322 8.4865 22.3333 11.4375C22.3333 12.6292 22.134 13.7531 21.7354 14.8094C21.3368 15.8656 20.7958 16.8 20.1125 17.6125L30.875 27.85L28.4833 30.125ZM11.2292 18.75C13.3646 18.75 15.18 18.0388 16.6753 16.6164C18.1707 15.194 18.9178 13.4677 18.9167 11.4375C18.9167 9.40625 18.169 7.67942 16.6736 6.257C15.1783 4.83458 13.3634 4.12392 11.2292 4.125C9.09375 4.125 7.27836 4.83621 5.783 6.25863C4.28764 7.68104 3.54053 9.40733 3.54167 11.4375C3.54167 13.4688 4.28935 15.1956 5.78471 16.618C7.28007 18.0404 9.09489 18.7511 11.2292 18.75Z" fill="black"/>
</svg>
